<?xml version="1.0" encoding="utf-8"?>
<!-- Generator: Adobe Illustrator 13.0.2, SVG Export Plug-In . SVG Version: 6.00 Build 14948)  -->
<!DOCTYPE svg PUBLIC "-//W3C//DTD SVG 1.0//EN" "http://www.w3.org/TR/2001/REC-SVG-20010904/DTD/svg10.dtd">
<svg version="1.0" id="Layer_1" xmlns="http://www.w3.org/2000/svg" xmlns:xlink="http://www.w3.org/1999/xlink" x="0px" y="0px"
	 width="659.062px" height="190.062px" viewBox="0 0 659.062 190.062" enable-background="new 0 0 659.062 190.062"
	 xml:space="preserve">
<g>
	<path fill="none" stroke="#FFFFFF" stroke-width="19.5" d="M611.08,45.386"/>
	<rect y="0.5" fill="#ED174C" width="6" height="189.5"/>
	<rect x="653.062" y="0.083" fill="#ED174C" width="6" height="189.501"/>
	<path fill="#003263" d="M625.125,41.812c0,0-16.562-41.5-65.062-41.5c-47.25,0-70.938,40.75-70.938,70.5
		c0,32.75,24.75,71.75,71.5,71.75c48.5,0,64.75-41.25,64.75-41.25l-15.5-7.25c0,0-11.5,31.75-50,31.75
		c-37.25,0-53.9-33.15-53.9-55.4c0-23.85,19.9-53.85,53.9-53.85s48.25,27.5,50.25,32.25L625.125,41.812z"/>
	<path fill="#003263" d="M483.875,41.812c0,0-16.562-41.5-65.062-41.5c-47.25,0-70.938,40.75-70.938,70.5
		c0,32.75,24.75,71.75,71.5,71.75c48.5,0,64.75-41.25,64.75-41.25l-15.5-7.25c0,0-11.5,31.75-50,31.75
		c-37.25,0-53.899-33.15-53.899-55.4c0-23.85,19.899-53.85,53.899-53.85s48.25,27.5,50.25,32.25L483.875,41.812z"/>
	<path fill="#003263" d="M263.25,16.279c30.656,0,55.508,24.853,55.508,55.508c0,30.656-24.852,55.508-55.508,55.508
		s-55.508-24.852-55.508-55.508C207.742,41.132,232.594,16.279,263.25,16.279z M263.35,143.996
		c39.638,0,71.771-32.133,71.771-71.771c0-39.637-32.133-71.771-71.771-71.771c-22.479,0-41.711,9.37-54.871,25.546V0.375h-16.437
		v189.688h16.437V118.5C221.645,134.302,241.175,143.996,263.35,143.996z"/>
	<path fill="#003263" d="M178.125,73.146h-126.5c0,20.75,17.25,52.604,54.75,52.604s49.75-31.25,49.75-31.25l14.866,7.374
		c-11.428,24.13-35.603,40.819-64.075,40.819c-39.377,0-71.899-31.923-71.899-71.3C35.017,39.5,61.375,0,106.375,0
		C152.875,0,178.875,40.75,178.125,73.146z M54,56.625L54,56.625L159.375,56.5c-6.452-23.013-27.651-39.899-52.725-39.899
		c-25.145,0-46.327,16.973-52.713,40.087"/>
</g>
</svg>
